<?xml version="1.0" standalone="no"?>
<!DOCTYPE svg PUBLIC "-//W3C//DTD SVG 20010904//EN"
 "http://www.w3.org/TR/2001/REC-SVG-20010904/DTD/svg10.dtd">
<svg version="1.0" xmlns="http://www.w3.org/2000/svg"
 width="500.000000pt" height="500.000000pt" viewBox="0 0 500.000000 500.000000"
 preserveAspectRatio="xMidYMid meet">
<metadata>
Created by potrace 1.11, written by Peter Selinger 2001-2013
</metadata>
<g transform="translate(0.000000,500.000000) scale(0.100000,-0.100000)"
fill="#000000" stroke="none">
<path d="M1292 4548 c-21 -21 -15 -75 10 -92 31 -22 51 -20 76 7 26 28 27 45
6 75 -17 25 -71 31 -92 10z"/>
<path d="M1663 4548 c-14 -18 -155 -263 -182 -317 -26 -51 -22 -82 14 -101 46
-24 65 -4 174 184 55 96 101 183 101 194 0 42 -82 72 -107 40z"/>
<path d="M2042 4533 c-10 -16 -40 -66 -67 -113 -26 -47 -67 -116 -90 -155
-121 -202 -235 -405 -235 -419 0 -24 37 -56 63 -56 32 0 54 27 134 165 38 66
124 213 191 327 67 114 122 215 122 226 0 53 -85 71 -118 25z"/>
<path d="M2438 4528 c-13 -18 -56 -89 -95 -158 -39 -69 -112 -197 -163 -285
-342 -591 -334 -577 -319 -603 43 -76 81 -53 172 103 179 308 397 685 479 827
56 98 50 148 -18 148 -24 0 -37 -8 -56 -32z"/>
<path d="M2826 4538 c-16 -27 -124 -216 -176 -308 -20 -36 -97 -171 -172 -300
-74 -129 -156 -271 -180 -315 -25 -44 -91 -160 -146 -258 -56 -97 -102 -185
-102 -195 0 -38 45 -67 82 -53 21 8 129 188 399 665 25 45 90 158 144 251 211
366 265 464 265 482 0 50 -87 73 -114 31z"/>
<path d="M3182 4478 c-27 -46 -105 -180 -172 -298 -68 -118 -164 -285 -213
-370 -495 -854 -557 -964 -557 -982 0 -8 11 -25 24 -37 33 -32 69 -22 100 27
12 20 75 127 138 237 64 110 148 256 188 325 40 69 105 181 145 250 40 69 114
197 165 285 160 276 242 417 287 495 23 41 43 85 43 97 0 31 -26 53 -65 53
-31 0 -37 -5 -83 -82z"/>
<path d="M3608 4543 c-15 -17 -115 -190 -413 -708 -73 -126 -208 -360 -300
-520 -93 -159 -200 -346 -240 -415 -79 -138 -185 -322 -430 -745 -89 -154
-198 -343 -242 -420 -44 -77 -122 -212 -173 -300 -51 -88 -127 -218 -168 -290
-93 -162 -204 -354 -293 -508 -68 -116 -82 -160 -57 -185 18 -18 73 -15 90 6
8 9 61 98 118 197 57 99 135 234 173 300 39 66 111 192 162 280 51 88 134 232
185 320 51 88 159 275 240 415 212 368 434 751 495 855 29 50 80 137 113 195
32 58 126 220 207 360 81 140 182 314 223 385 41 72 117 202 167 290 51 88
127 220 170 294 77 134 88 168 65 196 -17 21 -73 19 -92 -2z"/>
<path d="M2668 2218 c-16 -12 -39 -50 -173 -283 -28 -49 -96 -166 -150 -260
-54 -93 -140 -242 -190 -330 -51 -88 -170 -295 -266 -460 -246 -427 -226 -387
-206 -419 13 -20 26 -26 52 -26 42 0 26 -24 251 368 31 53 80 138 109 187 59
100 371 639 420 725 52 92 186 322 216 373 35 59 37 100 7 121 -27 19 -49 20
-70 4z"/>
<path d="M2848 1873 c-8 -10 -43 -67 -78 -128 -34 -60 -115 -202 -180 -315
-553 -966 -534 -931 -519 -959 12 -21 22 -26 54 -26 39 0 41 2 84 75 87 149
150 257 229 395 174 305 277 484 322 560 26 44 82 143 125 219 75 133 78 140
64 165 -19 33 -77 41 -101 14z"/>
<path d="M3052 1543 c-11 -10 -48 -67 -82 -128 -63 -110 -154 -268 -368 -640
-64 -110 -125 -216 -136 -237 -16 -29 -19 -42 -11 -65 9 -25 15 -28 54 -28
l43 0 91 155 c49 85 173 299 275 475 102 176 196 338 208 360 30 50 30 79 2
105 -27 25 -50 25 -76 3z"/>
<path d="M3252 1193 c-11 -10 -61 -89 -111 -175 -50 -87 -132 -229 -183 -315
-129 -222 -123 -209 -104 -238 20 -30 75 -34 98 -7 9 9 84 134 168 277 84 143
170 289 191 324 44 73 48 102 19 131 -25 25 -51 25 -78 3z"/>
<path d="M3446 858 c-22 -20 -191 -303 -209 -352 -5 -11 -1 -28 8 -42 19 -29
74 -33 97 -6 14 15 60 92 165 275 38 68 41 99 13 127 -26 26 -43 25 -74 -2z"/>
<path d="M3622 538 c-7 -7 -12 -26 -12 -43 0 -39 16 -55 55 -55 39 0 55 16 55
55 0 39 -16 55 -55 55 -17 0 -36 -5 -43 -12z"/>
</g>
</svg>
