<?xml version="1.0" standalone="no"?>
<!DOCTYPE svg PUBLIC "-//W3C//DTD SVG 20010904//EN"
 "http://www.w3.org/TR/2001/REC-SVG-20010904/DTD/svg10.dtd">
<svg version="1.0" xmlns="http://www.w3.org/2000/svg"
 width="2083.000000pt" height="2083.000000pt" viewBox="0 0 2083.000000 2083.000000"
 preserveAspectRatio="xMidYMid meet">
<metadata>
Created by potrace 1.11, written by Peter Selinger 2001-2013
</metadata>
<g transform="translate(0.000000,2083.000000) scale(0.100000,-0.100000)"
fill="#000000" stroke="none">
<path d="M4497 20799 c-55 -13 -90 -33 -136 -81 -55 -58 -75 -120 -69 -213 4
-55 11 -84 31 -117 65 -111 201 -162 332 -123 46 13 69 28 110 69 62 64 84
123 80 212 -9 175 -171 292 -348 253z"/>
<path d="M6335 20790 c-56 -22 -125 -84 -149 -133 -8 -18 -26 -49 -40 -70 -14
-21 -26 -40 -26 -42 0 -2 -46 -84 -103 -182 -125 -215 -407 -704 -434 -753
-11 -19 -41 -70 -67 -113 -25 -43 -46 -81 -46 -84 0 -3 -8 -17 -19 -31 -10
-15 -30 -47 -44 -72 -13 -25 -57 -101 -96 -170 -82 -144 -95 -183 -87 -262 18
-180 204 -294 377 -232 48 18 149 102 149 125 0 5 17 37 38 71 21 35 50 83 64
108 14 25 36 63 48 85 13 22 45 78 72 125 27 47 57 99 67 115 10 17 29 50 43
75 14 25 81 142 150 260 69 118 136 235 150 260 14 25 64 112 112 193 47 82
86 151 86 154 0 2 15 28 34 56 19 29 49 81 67 117 29 57 33 74 33 140 -1 81
-18 127 -70 189 -66 78 -209 111 -309 71z"/>
<path d="M8330 20801 c-47 -15 -92 -42 -124 -76 -25 -26 -223 -354 -353 -585
-11 -19 -78 -134 -150 -255 -108 -184 -270 -460 -418 -715 -49 -84 -318 -545
-550 -940 -114 -195 -215 -368 -225 -385 -9 -16 -79 -135 -154 -264 -81 -139
-143 -255 -150 -286 -28 -105 -1 -201 78 -273 61 -57 107 -74 191 -74 84 0
144 24 197 80 20 20 161 251 313 512 153 261 286 489 296 505 10 17 22 37 26
45 4 8 32 58 63 110 57 95 360 614 397 680 11 19 113 193 225 385 113 193 215
366 226 385 20 37 284 486 311 532 72 120 141 249 149 280 34 125 -31 258
-158 323 -38 20 -150 29 -190 16z"/>
<path d="M10312 20794 c-52 -19 -129 -92 -164 -154 -14 -25 -51 -90 -83 -145
-31 -55 -66 -116 -77 -135 -111 -193 -521 -903 -558 -965 -26 -44 -58 -100
-72 -125 -14 -25 -92 -160 -173 -300 -81 -140 -155 -268 -165 -285 -53 -93
-122 -212 -131 -225 -8 -14 -499 -865 -542 -940 -83 -147 -145 -254 -178 -307
-22 -34 -39 -64 -39 -67 0 -2 -70 -124 -155 -271 -85 -146 -155 -271 -155
-276 0 -5 -4 -9 -8 -9 -4 0 -13 -12 -19 -27 -7 -16 -23 -46 -36 -68 -24 -39
-158 -272 -195 -337 -11 -18 -42 -71 -69 -118 -28 -47 -62 -105 -75 -130 -14
-25 -60 -105 -103 -179 -98 -170 -105 -188 -106 -262 -1 -48 5 -73 30 -123 88
-180 327 -213 456 -64 30 35 127 197 330 553 12 22 63 110 112 195 116 198
342 592 375 650 14 25 61 106 105 181 44 74 83 142 87 150 4 8 12 23 19 34 7
11 37 63 67 115 30 52 60 104 67 115 7 11 16 27 20 35 4 8 65 114 135 234 70
121 128 220 128 222 0 1 27 48 60 103 33 56 60 104 60 106 0 3 11 24 26 46 14
22 33 55 43 72 10 18 87 151 171 296 84 146 160 279 170 295 10 17 59 103 110
191 51 88 141 243 200 345 58 102 151 262 205 355 203 352 243 421 274 475 17
30 36 62 41 70 5 8 21 35 34 60 13 25 49 88 80 140 62 105 76 143 76 212 0
101 -65 204 -160 253 -46 24 -164 29 -218 9z"/>
<path d="M12280 20801 c-105 -34 -131 -66 -322 -401 -96 -168 -186 -324 -199
-347 -13 -23 -55 -97 -94 -165 -38 -68 -75 -132 -82 -143 -7 -11 -16 -27 -20
-35 -4 -8 -26 -46 -48 -85 -23 -38 -53 -90 -67 -115 -14 -25 -80 -141 -147
-259 -138 -240 -154 -268 -189 -331 -13 -25 -28 -49 -32 -55 -6 -8 -534 -930
-668 -1165 -11 -19 -52 -91 -92 -160 -39 -69 -83 -145 -97 -170 -14 -25 -51
-90 -83 -145 -32 -55 -67 -116 -78 -135 -11 -19 -52 -91 -91 -159 -39 -68 -71
-126 -71 -128 0 -2 -16 -29 -35 -59 -19 -30 -35 -56 -35 -59 0 -2 -13 -26 -29
-53 -15 -26 -40 -68 -53 -93 -14 -24 -94 -163 -178 -309 -84 -146 -163 -283
-175 -305 -29 -50 -251 -439 -275 -480 -9 -16 -80 -140 -157 -275 -77 -135
-256 -447 -398 -695 -332 -578 -311 -541 -342 -604 -64 -134 -4 -300 133 -367
110 -54 247 -28 326 62 27 31 108 158 108 170 0 3 11 22 25 44 13 21 44 74 68
117 24 43 132 231 239 418 107 187 240 419 295 515 56 96 110 191 121 210 12
19 27 46 35 60 13 24 414 725 646 1129 61 106 111 195 111 197 0 2 14 23 30
47 17 25 30 48 30 51 0 3 61 113 136 243 219 382 605 1055 625 1089 9 18 72
127 139 244 67 117 130 226 139 244 10 17 98 171 196 341 473 824 965 1685
985 1725 65 127 6 301 -123 367 -55 28 -159 40 -207 24z"/>
<path d="M14245 20798 c-49 -18 -102 -55 -128 -90 -21 -28 -314 -527 -408
-694 -15 -28 -85 -150 -155 -270 -70 -121 -174 -300 -231 -399 -56 -99 -107
-187 -112 -195 -5 -8 -50 -85 -99 -170 -49 -85 -156 -270 -237 -410 -81 -140
-159 -275 -173 -300 -14 -25 -44 -76 -67 -115 -22 -38 -44 -77 -48 -85 -4 -8
-16 -28 -26 -45 -17 -28 -59 -101 -293 -505 -188 -327 -362 -627 -436 -754
-41 -72 -82 -144 -92 -160 -16 -28 -80 -139 -314 -545 -43 -73 -86 -147 -96
-165 -11 -17 -25 -42 -33 -56 -15 -27 -25 -44 -112 -195 -32 -55 -66 -113 -75
-130 -49 -85 -219 -379 -257 -443 -23 -41 -43 -76 -43 -78 0 -3 -16 -30 -35
-60 -19 -30 -35 -56 -35 -59 0 -2 -25 -45 -55 -96 -30 -50 -55 -93 -55 -94 0
-2 -42 -74 -93 -162 -51 -87 -96 -165 -100 -173 -4 -8 -16 -30 -28 -49 -11
-18 -138 -239 -283 -490 -145 -251 -272 -470 -282 -488 -39 -65 -220 -379
-254 -438 -35 -61 -188 -327 -223 -387 -104 -178 -176 -309 -185 -335 -16 -46
-8 -161 14 -203 31 -61 106 -125 169 -145 99 -31 215 -3 285 68 16 17 89 132
161 256 72 124 134 233 139 241 5 8 44 76 86 150 43 74 117 203 165 285 48 83
96 166 107 185 19 35 320 556 482 835 47 83 138 240 202 350 169 292 501 866
649 1123 71 122 140 241 152 263 12 22 27 48 32 57 27 45 175 301 192 332 30
53 458 792 518 895 29 50 154 266 278 480 123 215 234 406 246 425 11 19 24
42 28 50 4 8 20 38 36 65 36 60 352 606 380 655 10 19 36 64 57 100 21 36 47
81 58 100 11 19 43 76 72 125 29 50 64 110 77 134 14 24 61 104 104 178 43 75
79 137 79 139 0 3 11 21 24 42 13 20 110 188 217 372 106 184 238 414 294 510
117 202 125 221 125 304 0 113 -72 217 -177 256 -58 22 -140 25 -188 8z"/>
<path d="M16171 20791 c-101 -41 -81 -10 -519 -771 -186 -322 -525 -909 -615
-1065 -38 -66 -78 -136 -89 -155 -30 -53 -535 -928 -658 -1140 -59 -102 -252
-437 -430 -745 -178 -308 -351 -607 -385 -665 -34 -58 -64 -112 -68 -120 -4
-8 -15 -28 -26 -45 -10 -16 -89 -154 -176 -305 -150 -260 -234 -406 -255 -440
-11 -19 -68 -118 -105 -185 -15 -27 -36 -61 -45 -75 -9 -14 -19 -30 -21 -35
-4 -10 -109 -193 -129 -225 -10 -15 -158 -272 -204 -353 -29 -52 -226 -393
-489 -847 -110 -190 -208 -360 -218 -378 -60 -104 -104 -181 -172 -299 -42
-72 -85 -147 -96 -165 -10 -18 -78 -136 -150 -261 -73 -126 -140 -243 -150
-260 -10 -18 -50 -86 -88 -152 -39 -66 -131 -226 -205 -355 -75 -129 -144
-249 -154 -267 -11 -18 -57 -98 -104 -179 -47 -81 -97 -168 -112 -193 -15 -25
-33 -57 -41 -71 -14 -26 -187 -326 -432 -750 -185 -320 -332 -574 -363 -630
-14 -25 -67 -116 -119 -204 -51 -87 -93 -160 -93 -162 0 -3 -115 -202 -130
-224 -6 -8 -13 -22 -17 -30 -4 -8 -24 -43 -45 -78 -21 -34 -38 -64 -38 -66 0
-3 -19 -36 -90 -156 -12 -20 -168 -292 -201 -349 -14 -25 -68 -118 -119 -206
-51 -88 -101 -173 -110 -190 -10 -16 -30 -52 -47 -80 -16 -27 -32 -57 -36 -65
-4 -8 -15 -28 -26 -45 -10 -16 -59 -102 -109 -190 -51 -88 -96 -167 -101 -175
-9 -15 -231 -395 -261 -449 -8 -14 -31 -53 -49 -86 -19 -33 -54 -93 -78 -132
-23 -40 -43 -75 -43 -77 0 -2 -26 -48 -58 -103 -32 -54 -120 -204 -194 -333
-74 -129 -170 -294 -211 -367 -42 -72 -85 -147 -96 -165 -10 -18 -69 -121
-131 -228 -62 -107 -161 -278 -220 -380 -58 -102 -175 -304 -260 -450 -84
-146 -229 -398 -323 -560 -156 -271 -570 -987 -707 -1225 -32 -55 -90 -156
-130 -225 -40 -69 -87 -150 -104 -180 -18 -30 -97 -167 -176 -305 -78 -137
-151 -262 -161 -277 -11 -15 -19 -29 -19 -32 0 -5 -170 -300 -261 -454 -27
-45 -49 -86 -49 -91 0 -5 -3 -11 -7 -13 -5 -2 -15 -16 -24 -33 -8 -16 -59
-104 -111 -195 -53 -91 -105 -181 -116 -200 -35 -62 -87 -152 -162 -280 -154
-265 -151 -259 -152 -351 0 -67 24 -128 72 -183 52 -59 74 -66 210 -66 110 0
125 2 153 22 46 33 70 63 125 158 27 47 91 157 142 245 51 88 101 176 112 195
11 19 104 179 206 355 227 392 363 629 390 675 11 19 52 91 92 160 40 69 81
141 92 160 23 39 210 364 326 564 41 72 83 145 94 164 19 34 161 280 238 412
36 61 393 681 430 745 9 17 48 84 87 150 82 142 299 517 323 560 10 17 68 118
130 225 155 268 282 489 396 688 53 92 100 172 104 177 4 6 19 30 32 55 26 46
131 230 230 400 53 91 493 853 528 915 10 17 59 102 110 190 51 88 101 174
110 190 9 17 42 73 72 125 270 468 810 1402 825 1430 11 19 62 107 113 195 51
88 145 250 208 360 63 110 123 214 133 230 10 17 33 57 52 90 18 33 59 104 90
158 88 151 167 288 195 337 14 25 36 62 49 82 12 21 23 40 23 43 0 3 16 31 35
61 19 30 35 56 35 58 0 4 111 196 130 226 6 8 13 22 17 30 4 8 48 84 98 170
50 86 94 162 98 170 4 8 13 24 20 35 7 11 32 54 55 95 24 41 52 91 64 110 29
49 137 238 161 280 11 19 52 91 92 160 118 203 286 492 310 535 21 36 258 447
598 1035 71 124 138 241 149 260 11 19 54 94 96 165 41 72 83 144 92 160 30
53 131 227 185 320 29 50 62 106 72 125 23 40 174 303 304 526 48 83 96 166
107 185 10 19 94 165 187 324 92 160 177 308 190 330 12 22 46 81 75 130 29
50 62 108 75 130 12 22 163 283 335 580 350 605 510 882 724 1255 80 140 150
262 156 270 5 8 40 69 78 135 38 66 129 223 201 348 73 126 140 243 150 260
10 18 43 75 73 127 30 52 180 311 333 575 305 527 305 528 347 600 128 225
141 260 125 349 -16 91 -74 169 -157 211 -50 25 -163 28 -219 6z"/>
<path d="M11411 8978 c-57 -10 -121 -41 -154 -75 -24 -26 -136 -216 -670
-1143 -115 -201 -231 -401 -257 -445 -26 -44 -59 -100 -73 -125 -13 -25 -56
-99 -94 -165 -39 -66 -120 -205 -180 -310 -133 -231 -593 -1027 -619 -1072
-32 -55 -206 -356 -224 -388 -39 -67 -246 -426 -390 -675 -215 -371 -355 -614
-439 -760 -39 -69 -75 -132 -80 -140 -5 -8 -63 -107 -128 -219 -65 -112 -130
-225 -145 -250 -15 -25 -33 -57 -41 -71 -7 -14 -130 -227 -274 -475 -221 -383
-316 -548 -368 -637 -5 -10 -44 -77 -86 -150 -42 -73 -108 -187 -146 -253
-521 -900 -709 -1227 -726 -1265 -41 -93 -17 -222 56 -298 53 -56 74 -62 204
-62 120 1 134 4 186 46 21 17 127 175 127 189 0 2 20 36 43 77 54 91 375 645
442 763 12 22 69 121 127 220 57 99 167 288 242 420 76 132 146 251 154 265 9
14 17 27 17 30 0 3 8 16 17 30 9 14 78 133 153 265 76 132 146 252 156 267 11
14 19 28 19 31 0 3 57 103 127 224 235 405 333 576 333 581 0 3 6 13 14 21 7
9 27 41 43 71 24 44 107 187 173 300 46 79 124 214 205 355 54 94 139 242 190
330 51 88 101 176 112 195 11 19 43 73 70 120 28 47 102 175 165 285 64 110
126 218 139 241 117 201 158 272 180 312 34 61 701 1212 790 1365 38 65 69
120 69 122 0 3 16 29 35 59 19 30 35 57 35 60 0 3 95 170 130 226 17 29 165
285 178 309 7 13 28 49 46 80 28 47 211 363 278 481 11 19 50 85 85 147 71
122 83 160 78 238 -6 101 -67 189 -160 231 -60 28 -100 33 -164 22z"/>
<path d="M12337 7293 c-82 -28 -125 -79 -250 -298 -349 -611 -458 -802 -467
-815 -5 -8 -23 -40 -40 -70 -16 -30 -40 -73 -53 -95 -13 -22 -176 -305 -362
-630 -186 -324 -453 -790 -593 -1035 -140 -245 -263 -458 -272 -475 -9 -16
-115 -201 -235 -410 -120 -209 -229 -400 -243 -425 -13 -25 -40 -72 -60 -105
-40 -68 -63 -109 -93 -162 -12 -21 -81 -141 -154 -268 -72 -126 -143 -250
-157 -275 -14 -25 -88 -153 -163 -285 -117 -204 -248 -433 -315 -550 -10 -16
-60 -104 -112 -195 -52 -91 -106 -185 -120 -210 -14 -25 -41 -72 -60 -105 -20
-33 -47 -80 -60 -105 -14 -25 -66 -115 -115 -200 -129 -221 -135 -235 -139
-305 -4 -74 10 -126 49 -181 56 -80 76 -89 220 -92 180 -5 186 -1 323 234 41
70 74 129 74 131 0 2 10 20 23 41 13 20 37 62 54 92 17 30 55 97 84 148 30 52
66 115 80 140 15 26 51 90 81 142 101 175 330 575 351 610 10 19 66 116 122
215 57 99 112 196 123 215 11 19 124 217 252 440 128 223 244 425 258 450 14
25 28 50 32 55 4 6 19 30 32 55 39 71 62 110 208 365 76 132 147 256 157 275
11 19 81 141 155 270 74 129 146 255 160 280 14 25 39 68 55 96 17 27 41 70
55 95 14 24 105 184 203 354 98 171 187 326 198 345 10 19 81 143 157 275 76
132 147 256 158 275 10 19 108 190 217 380 109 190 232 406 275 480 42 74 117
205 167 291 105 182 113 202 113 283 -1 190 -188 320 -373 259z"/>
<path d="M13357 5590 c-97 -25 -146 -69 -219 -200 -14 -25 -57 -99 -95 -165
-74 -126 -213 -368 -244 -422 -10 -18 -69 -119 -130 -225 -61 -106 -119 -206
-129 -223 -9 -16 -52 -91 -95 -165 -105 -181 -207 -358 -270 -469 -11 -20 -46
-79 -76 -131 -31 -52 -67 -113 -79 -135 -38 -68 -512 -888 -531 -920 -11 -16
-22 -37 -26 -45 -4 -8 -34 -60 -66 -115 -33 -55 -69 -118 -82 -140 -12 -22
-65 -114 -117 -205 -53 -91 -110 -190 -127 -220 -17 -30 -36 -62 -41 -70 -5
-8 -31 -53 -58 -100 -179 -312 -240 -417 -265 -458 -15 -26 -32 -56 -37 -67
-6 -11 -20 -36 -31 -55 -21 -35 -156 -267 -189 -325 -10 -16 -60 -104 -112
-195 -105 -183 -121 -221 -119 -290 2 -90 43 -169 114 -221 39 -28 43 -29 167
-29 126 0 128 0 164 29 20 16 45 40 55 53 15 19 181 302 269 458 14 25 75 131
135 235 240 414 441 762 465 805 14 25 45 78 69 118 24 41 43 75 43 77 0 2 17
32 38 66 22 35 50 84 64 109 14 25 81 142 150 260 68 118 228 395 355 615 127
220 240 416 251 435 21 35 97 167 141 245 21 36 174 300 290 500 25 44 51 89
58 100 7 11 18 31 25 45 7 14 39 68 70 121 31 53 70 118 85 145 49 87 154 268
172 299 10 17 33 57 51 90 18 33 59 103 90 155 31 52 79 136 106 185 47 87 49
93 49 171 0 88 -9 113 -62 181 -58 73 -183 116 -276 93z"/>
<path d="M14344 3828 c-17 -6 -53 -27 -79 -47 -40 -30 -68 -70 -168 -241 -267
-457 -531 -907 -547 -935 -10 -16 -149 -255 -310 -530 -161 -275 -304 -520
-318 -545 -29 -52 -167 -288 -182 -310 -5 -8 -22 -37 -38 -65 -16 -27 -62
-106 -102 -175 -40 -69 -87 -150 -105 -180 -17 -30 -80 -138 -140 -240 -60
-101 -114 -204 -121 -227 -26 -85 0 -200 60 -265 54 -59 81 -68 211 -68 101 0
125 3 151 19 36 22 85 80 112 131 10 19 119 206 242 415 122 209 231 395 241
412 11 18 27 48 38 65 10 18 46 80 80 136 33 57 61 106 61 109 0 3 8 17 19 31
10 15 30 47 43 72 14 25 56 97 94 160 37 63 112 192 166 285 55 94 104 177
108 185 5 8 36 60 68 115 32 55 71 123 88 150 16 28 33 58 39 68 5 10 142 244
304 520 368 627 355 601 354 685 -2 115 -54 201 -152 250 -63 32 -156 40 -217
20z"/>
<path d="M15345 2150 c-51 -11 -100 -39 -137 -78 -31 -31 -69 -93 -168 -268
-28 -48 -311 -539 -375 -649 -32 -55 -91 -156 -130 -225 -40 -69 -114 -197
-165 -285 -51 -88 -104 -180 -118 -205 -13 -25 -28 -49 -32 -55 -20 -29 -32
-99 -28 -153 8 -88 51 -160 125 -210 28 -20 44 -22 156 -22 121 0 125 1 163
29 37 26 61 55 90 106 6 11 35 60 64 110 29 50 64 110 78 135 13 25 39 70 57
100 18 30 42 71 53 90 10 19 51 89 89 155 39 66 139 239 223 385 84 146 160
279 170 295 10 17 41 70 69 118 28 49 51 92 51 97 0 5 3 10 8 12 7 3 18 22 70
121 36 68 37 171 3 241 -58 118 -192 184 -316 156z"/>
<path d="M16309 529 c-109 -12 -179 -63 -225 -164 -30 -65 -28 -169 4 -231 25
-48 86 -112 120 -125 13 -5 76 -9 141 -9 114 0 119 1 158 29 135 97 153 296
40 419 -56 60 -148 92 -238 81z"/>
</g>
</svg>
