<?xml version="1.0" standalone="no"?>
<!DOCTYPE svg PUBLIC "-//W3C//DTD SVG 20010904//EN"
 "http://www.w3.org/TR/2001/REC-SVG-20010904/DTD/svg10.dtd">
<svg version="1.0" xmlns="http://www.w3.org/2000/svg"
 width="2083.000000pt" height="2083.000000pt" viewBox="0 0 2083.000000 2083.000000"
 preserveAspectRatio="xMidYMid meet">
<metadata>
Created by potrace 1.11, written by Peter Selinger 2001-2013
</metadata>
<g transform="translate(0.000000,2083.000000) scale(0.100000,-0.100000)"
fill="#000000" stroke="none">
<path d="M4467 20820 c-84 -21 -146 -70 -184 -144 -22 -42 -27 -64 -27 -126 0
-92 26 -153 90 -209 112 -98 273 -93 379 12 170 171 71 446 -170 471 -28 3
-67 1 -88 -4z"/>
<path d="M6308 20814 c-91 -28 -118 -65 -379 -519 -133 -231 -330 -573 -437
-760 -320 -555 -296 -509 -301 -593 -3 -66 0 -79 28 -137 37 -75 89 -118 170
-142 95 -27 204 0 272 69 19 19 100 149 181 289 80 140 296 513 479 829 183
316 339 593 347 615 21 60 11 162 -22 218 -71 122 -203 173 -338 131z"/>
<path d="M8290 20821 c-46 -14 -85 -39 -121 -78 -20 -21 -337 -553 -704 -1183
-368 -630 -800 -1371 -961 -1646 -161 -276 -302 -521 -314 -545 -12 -23 -24
-68 -27 -98 -11 -117 43 -215 147 -269 61 -32 70 -34 141 -30 118 7 180 50
254 178 21 36 200 342 398 680 1028 1757 1491 2549 1518 2600 35 67 34 176 -3
246 -61 117 -207 181 -328 145z"/>
<path d="M10291 20819 c-48 -14 -106 -53 -134 -91 -21 -28 -228 -385 -1052
-1813 -549 -953 -1219 -2114 -1529 -2650 -278 -482 -384 -675 -394 -716 -46
-185 123 -365 311 -334 54 9 125 46 159 82 14 15 82 125 151 243 68 118 384
665 702 1215 1706 2951 2100 3635 2121 3680 18 37 24 68 24 117 0 187 -177
319 -359 267z"/>
<path d="M12222 20813 c-91 -32 -121 -75 -405 -573 -146 -256 -485 -850 -754
-1320 -2292 -4003 -2878 -5031 -2890 -5070 -16 -50 -11 -131 11 -185 20 -46
82 -112 130 -138 33 -17 58 -22 126 -22 99 0 144 19 201 82 19 21 146 232 281
468 135 237 483 844 773 1350 2653 4627 2883 5029 2894 5070 49 179 -88 357
-273 354 -28 0 -70 -7 -94 -16z"/>
<path d="M14207 20816 c-59 -22 -115 -63 -141 -104 -13 -20 -166 -282 -339
-582 -172 -300 -592 -1026 -932 -1615 -1471 -2547 -1756 -3041 -2070 -3585
-183 -316 -612 -1061 -955 -1654 l-623 -1079 -5 -74 c-6 -88 13 -147 67 -206
105 -117 313 -117 410 -1 18 22 207 341 420 709 213 369 524 906 691 1195 363
628 984 1702 2615 4525 l1220 2110 4 83 c3 73 0 89 -23 137 -46 92 -129 146
-236 152 -40 2 -79 -2 -103 -11z"/>
<path d="M16149 20817 c-56 -21 -107 -56 -133 -90 -13 -18 -580 -997 -1261
-2177 -681 -1180 -1809 -3135 -2508 -4345 -1890 -3274 -3608 -6252 -4427
-7670 -400 -693 -1361 -2358 -2135 -3699 -774 -1342 -1414 -2460 -1422 -2484
-27 -91 -6 -183 58 -256 63 -72 107 -91 209 -91 96 0 140 18 197 77 17 18 549
929 1181 2023 632 1095 1461 2530 1842 3190 724 1253 2269 3929 4698 8135 789
1367 2025 3507 2746 4755 l1311 2270 0 97 c0 96 0 96 -40 154 -54 77 -121 115
-213 121 -41 2 -81 -2 -103 -10z"/>
<path d="M11323 8987 c-17 -7 -51 -26 -75 -43 -38 -27 -79 -93 -355 -570 -435
-753 -1481 -2564 -2523 -4369 -486 -841 -1150 -1991 -1475 -2555 -326 -564
-600 -1041 -610 -1060 -27 -51 -27 -171 1 -230 26 -54 74 -104 128 -133 33
-17 58 -22 126 -22 96 0 141 18 197 77 17 18 195 316 395 663 463 802 1691
2925 2073 3585 958 1655 2446 4232 2466 4270 19 36 24 60 24 125 0 70 -4 87
-30 134 -31 56 -88 106 -148 128 -18 6 -61 11 -97 11 -36 0 -79 -5 -97 -11z"/>
<path d="M12309 7317 c-56 -21 -107 -56 -133 -90 -13 -18 -354 -610 -759
-1317 -756 -1321 -1814 -3171 -2680 -4684 l-492 -859 0 -91 c0 -81 3 -96 27
-138 76 -129 231 -175 364 -108 33 16 70 40 81 52 12 13 204 343 428 733 651
1136 1625 2835 2115 3690 249 435 667 1164 928 1620 l476 830 4 68 c5 84 -9
138 -52 197 -64 88 -209 134 -307 97z"/>
<path d="M13308 5606 c-60 -16 -120 -57 -151 -104 -19 -29 -1599 -2763 -2182
-3777 -54 -93 -250 -434 -436 -756 -229 -397 -342 -601 -349 -634 -27 -121 35
-248 153 -312 23 -13 55 -18 117 -18 149 0 184 30 329 280 53 94 407 705 786
1360 378 655 1000 1732 1383 2393 l695 1204 5 74 c6 89 -13 147 -66 206 -70
77 -186 112 -284 84z"/>
<path d="M14309 3846 c-53 -19 -106 -54 -128 -85 -17 -24 -427 -723 -1608
-2749 -370 -634 -375 -643 -381 -707 -2 -37 0 -83 7 -107 54 -190 304 -262
451 -130 30 27 142 211 426 697 212 363 650 1112 974 1665 323 553 596 1021
606 1040 29 56 25 171 -9 236 -63 123 -213 185 -338 140z"/>
<path d="M15300 2167 c-53 -15 -106 -45 -137 -79 -12 -13 -123 -201 -248 -418
-126 -217 -332 -575 -459 -795 -305 -530 -296 -511 -296 -599 0 -57 5 -83 26
-124 83 -168 312 -206 440 -73 42 42 218 341 904 1535 l115 200 0 80 c0 87
-16 130 -70 194 -56 67 -186 104 -275 79z"/>
<path d="M16220 541 c-120 -39 -189 -137 -190 -267 0 -168 127 -284 299 -272
151 11 251 120 251 273 -1 111 -52 199 -145 248 -44 22 -170 33 -215 18z"/>
</g>
</svg>
